<svg id="Layer_1" data-name="Layer 1" xmlns="http://www.w3.org/2000/svg" viewBox="0 0 287.52389 42.3603"><title>HugeDomains_Logo</title><path d="M246.146,34.8554V32.5332h1.8408v2.3222Z" style="fill:#aaa"/><path d="M257.20849,27.1015a3.07193,3.07193,0,0,0-3.1983-2.7158c-2.6504,0-3.9638,2.4097-3.9638,4.8193,0,2.4083,1.3134,4.8184,3.9638,4.8184a3.36707,3.36707,0,0,0,3.2852-3.2207h1.3799c-.3721,2.7168-2.1465,4.3809-4.6651,4.3809-3.4609,0-5.3437-2.7373-5.3437-5.9786,0-3.2426,1.8828-5.9804,5.3437-5.9804a4.22547,4.22547,0,0,1,4.5781,3.8769Z" style="fill:#aaa"/><path d="M270.28459,29.205c0,3.2413-1.8828,5.9786-5.3437,5.9786-3.46,0-5.3447-2.7373-5.3447-5.9786,0-3.2426,1.8847-5.9804,5.3447-5.9804C268.40179,23.2246,270.28459,25.9624,270.28459,29.205Zm-9.3086,0c0,2.4083,1.3155,4.8184,3.9649,4.8184,2.6504,0,3.96481-2.4101,3.96481-4.8184,0-2.4096-1.31441-4.8193-3.96481-4.8193C262.29149,24.3857,260.976,26.7954,260.976,29.205Z" style="fill:#aaa"/><path d="M271.9077,23.5532h1.27049V25.459h.0654a3.94525,3.94525,0,0,1,3.7012-2.2344,3.14165,3.14165,0,0,1,3.2422,2.2124,3.81918,3.81918,0,0,1,3.5918-2.2124c2.4746,0,3.7451,1.292,3.7451,3.9648v7.666H286.144V27.2549c0-1.8619-.7012-2.8692-2.6719-2.8692-2.3867,0-3.06639,1.9712-3.06639,4.0733v6.3964h-1.37991v-7.666c.0215-1.5337-.6123-2.8037-2.3652-2.8037-2.3877,0-3.3515,1.7954-3.373,4.1611v6.3086H271.9077Z" style="fill:#aaa"/><path d="M0,8.1108H7.1098v9.9385h9.3648V8.1108h7.1098V35.4033H16.4746V24.165H7.1098V35.4033H0Z" style="fill:#323031"/><path d="M45.7153,35.4033H39.4082V32.6894H39.332a7.30724,7.30724,0,0,1-6.0395,3.2871c-5.6954,0-7.3389-3.2871-7.3389-8.4853V15.5654h6.4975V27.0708c0,2.6372,1.147,3.5542,3.211,3.5542,1.4145,0,3.5552-.917,3.5552-4.4336V15.5654h6.498Z" style="fill:#323031"/><path d="M67.7929,32.9961c0,3.248-.6118,9.3642-9.9004,9.3642-4.6254,0-8.9829-1.0322-9.7475-6.3447h6.498a2.12308,2.12308,0,0,0,1.1089,1.7197,5.16479,5.16479,0,0,0,2.3701.4209c3.0962,0,3.4019-2.1797,3.4019-4.625v-1.873h-.0767a6.28178,6.28178,0,0,1-5.2744,2.9043c-6.0019,0-8.7158-4.2813-8.7158-9.8618,0-5.2749,3.0967-9.709,8.7158-9.709a5.73669,5.73669,0,0,1,5.3125,3.0576h.0767V15.5654h6.2309ZM57.7397,19.9609c-2.8667,0-3.7842,2.5225-3.7842,4.9692,0,2.3316,1.0703,4.6636,3.7461,4.6636,2.7515,0,3.9366-2.1406,3.9366-4.6255C61.6382,22.4453,60.645,19.9609,57.7397,19.9609Z" style="fill:#323031"/><path d="M75.6977,27.0708c.1148,2.7133,1.6817,4.5102,4.4341,4.5102a3.8738,3.8738,0,0,0,3.7075-2.1787h6.0786c-1.185,4.5869-5.4287,6.5742-9.8628,6.5742-6.4594,0-10.8554-3.8984-10.8554-10.5498a10.41194,10.41194,0,0,1,10.7026-10.435c7.1104,0,10.6651,5.3515,10.3594,12.0791Zm8.0655-3.6314a4.01856,4.01856,0,0,0-3.8609-4.0522c-2.293,0-3.8218,1.6435-4.2046,4.0522Z" style="fill:#323031"/><path d="M92.0595,7.5649h11.7344c8.3706,0,13.3784,5.0845,13.3784,13.5313,0,8.9448-5.084,13.7612-13.3784,13.7612H92.0595Zm7.1099,21.1773h3.3633c5.3896-.1153,7.5298-2.2178,7.5298-7.6841,0-4.9688-2.6758-7.3775-7.5298-7.3775H99.1694Z" style="fill:#517cc6"/><path d="M128.7529,14.4458A10.17255,10.17255,0,0,1,139.2275,24.957a10.45487,10.45487,0,1,1-20.9097,0A10.14145,10.14145,0,0,1,128.7529,14.4458Zm0,16.0161c3.0195,0,3.9761-2.9815,3.9761-5.5049,0-2.5229-.9566-5.5425-3.9761-5.5425s-3.9365,3.0196-3.9365,5.5425C124.8164,27.4804,125.7334,30.4619,128.7529,30.4619Z" style="fill:#517cc6"/><path d="M140.6137,15.019h6.3067v2.7139h.0771a6.61593,6.61593,0,0,1,5.6953-3.2871c2.4844,0,4.7022.8022,5.7715,3.2104a7.27153,7.27153,0,0,1,6.1924-3.2104c6.3066,0,6.9961,4.7778,6.9961,8.562V34.8574h-6.499V23.1992c0-2.1411-1.0322-3.4019-2.7129-3.4019-2.792,0-3.0596,2.1402-3.0596,5.3511v9.709h-6.498V23.581c0-2.331-.6875-3.7837-2.4463-3.7837-2.332,0-3.3252,1.3379-3.3252,5.3892v9.6709h-6.4981Z" style="fill:#517cc6"/><path d="M174.1508,21.1352a6.103,6.103,0,0,1,3.0967-5.3135,13.08557,13.08557,0,0,1,6.3067-1.3759c4.7021,0,9.2509,1.0312,9.2509,6.6504v8.6772a11.5381,11.5381,0,0,0,.7647,5.084h-6.5361a7.73814,7.73814,0,0,1-.3819-1.8731,8.96028,8.96028,0,0,1-6.5381,2.4463c-3.7832,0-6.7646-1.9111-6.7646-6.0009,0-6.46,7.0322-5.9634,11.5439-6.8809,1.1075-.229,1.7188-.6113,1.7188-1.8345,0-1.4907-1.7959-2.0639-3.1338-2.0639-1.7959,0-2.9434.8022-3.249,2.4848Zm8.4102,10.2827c3.0957,0,4.1289-1.7597,3.9746-5.8486-.917.5728-2.5996.6875-4.0127,1.0698-1.4521.3438-2.6758.9556-2.6758,2.523C179.8471,30.7675,181.1089,31.4179,182.561,31.4179Z" style="fill:#517cc6"/><path d="M195.6342,15.019h6.49809V34.8574H195.6342Z" style="fill:#517cc6"/><path d="M205.00829,15.019h6.3066v2.7139h.0762a7.49271,7.49271,0,0,1,6.2305-3.2871c6.6123,0,7.1474,4.8159,7.1474,7.6826v12.729h-6.498V25.2632c0-2.7144.3056-5.4659-3.2491-5.4659-2.44619,0-3.5166,2.064-3.5166,4.2422V34.8574h-6.497Z" style="fill:#517cc6"/><path d="M232.605,28.3203a2.66776,2.66776,0,0,0,1.0693,2.2178,4.07646,4.07646,0,0,0,2.4082.6884c1.2627,0,3.0586-.5351,3.0586-2.1025,0-1.5293-2.02639-1.835-3.1729-2.103-4.0898-1.0318-9.2119-1.146-9.2119-6.4981,0-4.7778,5.1602-6.0771,9.0596-6.0771,4.3564,0,8.9062,1.2612,9.13481,6.4214h-6.001a1.8696,1.8696,0,0,0-.84081-1.7203,3.85031,3.85031,0,0,0-2.0645-.4965c-1.0693,0-2.79.1147-2.79,1.4907,0,1.873,4.3584,2.2168,7.3398,2.8667,4.0127.8027,5.0449,3.7075,5.0449,5.3515,0,5.3125-5.0449,7.0713-9.5175,7.0713-4.7022,0-9.5186-1.5673-9.709-7.1103Z" style="fill:#517cc6"/><polygon points="192.632 6.416 198.88 13.189 210.099 0 198.88 8.635 192.632 6.416" style="fill:#323031"/></svg>